# xmcd CD database file
#
# Track frame offsets:
#	150
#	81615
#	104110
#	126196
#	147850
#	167178
#	184960
#
# Disc length: 2681 seconds
#
# Revision: 0
# Processed by: cddbd v1.5.2PL0 Copyright (c) Steve Scherf et al.
# Submitted via: CDex 1.51
#
DISCID=6b0a7707
DTITLE=Various Artist - Yoga spirit CD3
DYEAR=2003
DGENRE=New Age
TTITLE0=Pure Land
TTITLE1=Foregone Springtime
TTITLE2=Spring from the Heart
TTITLE3=Mystery Sand Beach
TTITLE4=Straw-Man in the Field
TTITLE5=Journey of the Heart
TTITLE6=Migrant
EXTD=YEAR: 2003
EXTT0=
EXTT1=
EXTT2=
EXTT3=
EXTT4=
EXTT5=
EXTT6=
PLAYORDER=
